<svg xmlns="http://www.w3.org/2000/svg" viewBox="0 0 96 96" role="img" aria-label="AffiliatePro Hub mark">
  <defs>
    <linearGradient id="bg" x1="12" y1="8" x2="86" y2="88" gradientUnits="userSpaceOnUse">
      <stop stop-color="#111827"/>
      <stop offset="0.58" stop-color="#17213a"/>
      <stop offset="1" stop-color="#2847a8"/>
    </linearGradient>
    <linearGradient id="blue" x1="24" y1="67" x2="70" y2="28" gradientUnits="userSpaceOnUse">
      <stop stop-color="#7f9dff"/>
      <stop offset="1" stop-color="#e9edff"/>
    </linearGradient>
    <linearGradient id="accent" x1="26" y1="67" x2="73" y2="25" gradientUnits="userSpaceOnUse">
      <stop stop-color="#f47b20"/>
      <stop offset="0.54" stop-color="#ffb156"/>
      <stop offset="1" stop-color="#fff7ed"/>
    </linearGradient>
  </defs>
  <rect width="96" height="96" rx="24" fill="url(#bg)"/>
  <path d="M14 25h68M14 41h68M14 57h68M14 73h68M30 12v72M46 12v72M62 12v72M78 12v72" stroke="#ffffff" stroke-opacity="0.055" stroke-width="1.4"/>
  <circle cx="75" cy="22" r="14" fill="#f47b20" opacity="0.16"/>
  <path d="M25 68 43 30c3-6 11-7 15-2l26 26H67L50 38 35 68H25Z" fill="url(#blue)"/>
  <path d="M27 68 46 30c3-6 11-7 15-2 1 1 2 3 3 5l15 35H66l-4-10H41l-5 10H27Zm20-22h11l-5-12-6 12Z" fill="url(#accent)"/>
  <path d="M62 28h17v17" fill="none" stroke="#f47b20" stroke-linecap="round" stroke-linejoin="round" stroke-width="7"/>
  <path d="M37 62h39" stroke="#ffffff" stroke-linecap="round" stroke-width="6"/>
  <circle cx="78" cy="62" r="5.5" fill="#f47b20"/>
</svg>
